<svg xmlns="http://www.w3.org/2000/svg" width="1200" height="630" viewBox="0 0 1200 630"><defs><linearGradient id="bg" x1="0" y1="0" x2="1" y2="1"><stop offset="0" stop-color="#101218"/><stop offset="1" stop-color="#0A0B0E"/></linearGradient><radialGradient id="gv" cx="50%" cy="50%" r="50%"><stop offset="0" stop-color="#A56BFF" stop-opacity="0.30"/><stop offset="1" stop-color="#A56BFF" stop-opacity="0"/></radialGradient><radialGradient id="gc" cx="50%" cy="50%" r="50%"><stop offset="0" stop-color="#22D3EE" stop-opacity="0.28"/><stop offset="1" stop-color="#22D3EE" stop-opacity="0"/></radialGradient><radialGradient id="gg" cx="50%" cy="50%" r="50%"><stop offset="0" stop-color="#4ADE80" stop-opacity="0.22"/><stop offset="1" stop-color="#4ADE80" stop-opacity="0"/></radialGradient></defs><rect width="1200" height="630" fill="url(#bg)"/><circle cx="888" cy="113" r="320" fill="url(#gv)"/><circle cx="1116" cy="315" r="300" fill="url(#gc)"/><circle cx="960" cy="579" r="280" fill="url(#gg)"/><g fill="#FFFFFF" opacity="0.05"><circle cx="40" cy="40" r="1.4"/><circle cx="86" cy="40" r="1.4"/><circle cx="132" cy="40" r="1.4"/><circle cx="178" cy="40" r="1.4"/><circle cx="224" cy="40" r="1.4"/><circle cx="270" cy="40" r="1.4"/><circle cx="316" cy="40" r="1.4"/><circle cx="362" cy="40" r="1.4"/><circle cx="408" cy="40" r="1.4"/><circle cx="454" cy="40" r="1.4"/><circle cx="500" cy="40" r="1.4"/><circle cx="546" cy="40" r="1.4"/><circle cx="592" cy="40" r="1.4"/><circle cx="638" cy="40" r="1.4"/><circle cx="684" cy="40" r="1.4"/><circle cx="730" cy="40" r="1.4"/><circle cx="776" cy="40" r="1.4"/><circle cx="822" cy="40" r="1.4"/><circle cx="868" cy="40" r="1.4"/><circle cx="914" cy="40" r="1.4"/><circle cx="960" cy="40" r="1.4"/><circle cx="1006" cy="40" r="1.4"/><circle cx="1052" cy="40" r="1.4"/><circle cx="1098" cy="40" r="1.4"/><circle cx="1144" cy="40" r="1.4"/><circle cx="1190" cy="40" r="1.4"/><circle cx="40" cy="86" r="1.4"/><circle cx="86" cy="86" r="1.4"/><circle cx="132" cy="86" r="1.4"/><circle cx="178" cy="86" r="1.4"/><circle cx="224" cy="86" r="1.4"/><circle cx="270" cy="86" r="1.4"/><circle cx="316" cy="86" r="1.4"/><circle cx="362" cy="86" r="1.4"/><circle cx="408" cy="86" r="1.4"/><circle cx="454" cy="86" r="1.4"/><circle cx="500" cy="86" r="1.4"/><circle cx="546" cy="86" r="1.4"/><circle cx="592" cy="86" r="1.4"/><circle cx="638" cy="86" r="1.4"/><circle cx="684" cy="86" r="1.4"/><circle cx="730" cy="86" r="1.4"/><circle cx="776" cy="86" r="1.4"/><circle cx="822" cy="86" r="1.4"/><circle cx="868" cy="86" r="1.4"/><circle cx="914" cy="86" r="1.4"/><circle cx="960" cy="86" r="1.4"/><circle cx="1006" cy="86" r="1.4"/><circle cx="1052" cy="86" r="1.4"/><circle cx="1098" cy="86" r="1.4"/><circle cx="1144" cy="86" r="1.4"/><circle cx="1190" cy="86" r="1.4"/><circle cx="40" cy="132" r="1.4"/><circle cx="86" cy="132" r="1.4"/><circle cx="132" cy="132" r="1.4"/><circle cx="178" cy="132" r="1.4"/><circle cx="224" cy="132" r="1.4"/><circle cx="270" cy="132" r="1.4"/><circle cx="316" cy="132" r="1.4"/><circle cx="362" cy="132" r="1.4"/><circle cx="408" cy="132" r="1.4"/><circle cx="454" cy="132" r="1.4"/><circle cx="500" cy="132" r="1.4"/><circle cx="546" cy="132" r="1.4"/><circle cx="592" cy="132" r="1.4"/><circle cx="638" cy="132" r="1.4"/><circle cx="684" cy="132" r="1.4"/><circle cx="730" cy="132" r="1.4"/><circle cx="776" cy="132" r="1.4"/><circle cx="822" cy="132" r="1.4"/><circle cx="868" cy="132" r="1.4"/><circle cx="914" cy="132" r="1.4"/><circle cx="960" cy="132" r="1.4"/><circle cx="1006" cy="132" r="1.4"/><circle cx="1052" cy="132" r="1.4"/><circle cx="1098" cy="132" r="1.4"/><circle cx="1144" cy="132" r="1.4"/><circle cx="1190" cy="132" r="1.4"/><circle cx="40" cy="178" r="1.4"/><circle cx="86" cy="178" r="1.4"/><circle cx="132" cy="178" r="1.4"/><circle cx="178" cy="178" r="1.4"/><circle cx="224" cy="178" r="1.4"/><circle cx="270" cy="178" r="1.4"/><circle cx="316" cy="178" r="1.4"/><circle cx="362" cy="178" r="1.4"/><circle cx="408" cy="178" r="1.4"/><circle cx="454" cy="178" r="1.4"/><circle cx="500" cy="178" r="1.4"/><circle cx="546" cy="178" r="1.4"/><circle cx="592" cy="178" r="1.4"/><circle cx="638" cy="178" r="1.4"/><circle cx="684" cy="178" r="1.4"/><circle cx="730" cy="178" r="1.4"/><circle cx="776" cy="178" r="1.4"/><circle cx="822" cy="178" r="1.4"/><circle cx="868" cy="178" r="1.4"/><circle cx="914" cy="178" r="1.4"/><circle cx="960" cy="178" r="1.4"/><circle cx="1006" cy="178" r="1.4"/><circle cx="1052" cy="178" r="1.4"/><circle cx="1098" cy="178" r="1.4"/><circle cx="1144" cy="178" r="1.4"/><circle cx="1190" cy="178" r="1.4"/><circle cx="40" cy="224" r="1.4"/><circle cx="86" cy="224" r="1.4"/><circle cx="132" cy="224" r="1.4"/><circle cx="178" cy="224" r="1.4"/><circle cx="224" cy="224" r="1.4"/><circle cx="270" cy="224" r="1.4"/><circle cx="316" cy="224" r="1.4"/><circle cx="362" cy="224" r="1.4"/><circle cx="408" cy="224" r="1.4"/><circle cx="454" cy="224" r="1.4"/><circle cx="500" cy="224" r="1.4"/><circle cx="546" cy="224" r="1.4"/><circle cx="592" cy="224" r="1.4"/><circle cx="638" cy="224" r="1.4"/><circle cx="684" cy="224" r="1.4"/><circle cx="730" cy="224" r="1.4"/><circle cx="776" cy="224" r="1.4"/><circle cx="822" cy="224" r="1.4"/><circle cx="868" cy="224" r="1.4"/><circle cx="914" cy="224" r="1.4"/><circle cx="960" cy="224" r="1.4"/><circle cx="1006" cy="224" r="1.4"/><circle cx="1052" cy="224" r="1.4"/><circle cx="1098" cy="224" r="1.4"/><circle cx="1144" cy="224" r="1.4"/><circle cx="1190" cy="224" r="1.4"/><circle cx="40" cy="270" r="1.4"/><circle cx="86" cy="270" r="1.4"/><circle cx="132" cy="270" r="1.4"/><circle cx="178" cy="270" r="1.4"/><circle cx="224" cy="270" r="1.4"/><circle cx="270" cy="270" r="1.4"/><circle cx="316" cy="270" r="1.4"/><circle cx="362" cy="270" r="1.4"/><circle cx="408" cy="270" r="1.4"/><circle cx="454" cy="270" r="1.4"/><circle cx="500" cy="270" r="1.4"/><circle cx="546" cy="270" r="1.4"/><circle cx="592" cy="270" r="1.4"/><circle cx="638" cy="270" r="1.4"/><circle cx="684" cy="270" r="1.4"/><circle cx="730" cy="270" r="1.4"/><circle cx="776" cy="270" r="1.4"/><circle cx="822" cy="270" r="1.4"/><circle cx="868" cy="270" r="1.4"/><circle cx="914" cy="270" r="1.4"/><circle cx="960" cy="270" r="1.4"/><circle cx="1006" cy="270" r="1.4"/><circle cx="1052" cy="270" r="1.4"/><circle cx="1098" cy="270" r="1.4"/><circle cx="1144" cy="270" r="1.4"/><circle cx="1190" cy="270" r="1.4"/><circle cx="40" cy="316" r="1.4"/><circle cx="86" cy="316" r="1.4"/><circle cx="132" cy="316" r="1.4"/><circle cx="178" cy="316" r="1.4"/><circle cx="224" cy="316" r="1.4"/><circle cx="270" cy="316" r="1.4"/><circle cx="316" cy="316" r="1.4"/><circle cx="362" cy="316" r="1.4"/><circle cx="408" cy="316" r="1.4"/><circle cx="454" cy="316" r="1.4"/><circle cx="500" cy="316" r="1.4"/><circle cx="546" cy="316" r="1.4"/><circle cx="592" cy="316" r="1.4"/><circle cx="638" cy="316" r="1.4"/><circle cx="684" cy="316" r="1.4"/><circle cx="730" cy="316" r="1.4"/><circle cx="776" cy="316" r="1.4"/><circle cx="822" cy="316" r="1.4"/><circle cx="868" cy="316" r="1.4"/><circle cx="914" cy="316" r="1.4"/><circle cx="960" cy="316" r="1.4"/><circle cx="1006" cy="316" r="1.4"/><circle cx="1052" cy="316" r="1.4"/><circle cx="1098" cy="316" r="1.4"/><circle cx="1144" cy="316" r="1.4"/><circle cx="1190" cy="316" r="1.4"/><circle cx="40" cy="362" r="1.4"/><circle cx="86" cy="362" r="1.4"/><circle cx="132" cy="362" r="1.4"/><circle cx="178" cy="362" r="1.4"/><circle cx="224" cy="362" r="1.4"/><circle cx="270" cy="362" r="1.4"/><circle cx="316" cy="362" r="1.4"/><circle cx="362" cy="362" r="1.4"/><circle cx="408" cy="362" r="1.4"/><circle cx="454" cy="362" r="1.4"/><circle cx="500" cy="362" r="1.4"/><circle cx="546" cy="362" r="1.4"/><circle cx="592" cy="362" r="1.4"/><circle cx="638" cy="362" r="1.4"/><circle cx="684" cy="362" r="1.4"/><circle cx="730" cy="362" r="1.4"/><circle cx="776" cy="362" r="1.4"/><circle cx="822" cy="362" r="1.4"/><circle cx="868" cy="362" r="1.4"/><circle cx="914" cy="362" r="1.4"/><circle cx="960" cy="362" r="1.4"/><circle cx="1006" cy="362" r="1.4"/><circle cx="1052" cy="362" r="1.4"/><circle cx="1098" cy="362" r="1.4"/><circle cx="1144" cy="362" r="1.4"/><circle cx="1190" cy="362" r="1.4"/><circle cx="40" cy="408" r="1.4"/><circle cx="86" cy="408" r="1.4"/><circle cx="132" cy="408" r="1.4"/><circle cx="178" cy="408" r="1.4"/><circle cx="224" cy="408" r="1.4"/><circle cx="270" cy="408" r="1.4"/><circle cx="316" cy="408" r="1.4"/><circle cx="362" cy="408" r="1.4"/><circle cx="408" cy="408" r="1.4"/><circle cx="454" cy="408" r="1.4"/><circle cx="500" cy="408" r="1.4"/><circle cx="546" cy="408" r="1.4"/><circle cx="592" cy="408" r="1.4"/><circle cx="638" cy="408" r="1.4"/><circle cx="684" cy="408" r="1.4"/><circle cx="730" cy="408" r="1.4"/><circle cx="776" cy="408" r="1.4"/><circle cx="822" cy="408" r="1.4"/><circle cx="868" cy="408" r="1.4"/><circle cx="914" cy="408" r="1.4"/><circle cx="960" cy="408" r="1.4"/><circle cx="1006" cy="408" r="1.4"/><circle cx="1052" cy="408" r="1.4"/><circle cx="1098" cy="408" r="1.4"/><circle cx="1144" cy="408" r="1.4"/><circle cx="1190" cy="408" r="1.4"/><circle cx="40" cy="454" r="1.4"/><circle cx="86" cy="454" r="1.4"/><circle cx="132" cy="454" r="1.4"/><circle cx="178" cy="454" r="1.4"/><circle cx="224" cy="454" r="1.4"/><circle cx="270" cy="454" r="1.4"/><circle cx="316" cy="454" r="1.4"/><circle cx="362" cy="454" r="1.4"/><circle cx="408" cy="454" r="1.4"/><circle cx="454" cy="454" r="1.4"/><circle cx="500" cy="454" r="1.4"/><circle cx="546" cy="454" r="1.4"/><circle cx="592" cy="454" r="1.4"/><circle cx="638" cy="454" r="1.4"/><circle cx="684" cy="454" r="1.4"/><circle cx="730" cy="454" r="1.4"/><circle cx="776" cy="454" r="1.4"/><circle cx="822" cy="454" r="1.4"/><circle cx="868" cy="454" r="1.4"/><circle cx="914" cy="454" r="1.4"/><circle cx="960" cy="454" r="1.4"/><circle cx="1006" cy="454" r="1.4"/><circle cx="1052" cy="454" r="1.4"/><circle cx="1098" cy="454" r="1.4"/><circle cx="1144" cy="454" r="1.4"/><circle cx="1190" cy="454" r="1.4"/><circle cx="40" cy="500" r="1.4"/><circle cx="86" cy="500" r="1.4"/><circle cx="132" cy="500" r="1.4"/><circle cx="178" cy="500" r="1.4"/><circle cx="224" cy="500" r="1.4"/><circle cx="270" cy="500" r="1.4"/><circle cx="316" cy="500" r="1.4"/><circle cx="362" cy="500" r="1.4"/><circle cx="408" cy="500" r="1.4"/><circle cx="454" cy="500" r="1.4"/><circle cx="500" cy="500" r="1.4"/><circle cx="546" cy="500" r="1.4"/><circle cx="592" cy="500" r="1.4"/><circle cx="638" cy="500" r="1.4"/><circle cx="684" cy="500" r="1.4"/><circle cx="730" cy="500" r="1.4"/><circle cx="776" cy="500" r="1.4"/><circle cx="822" cy="500" r="1.4"/><circle cx="868" cy="500" r="1.4"/><circle cx="914" cy="500" r="1.4"/><circle cx="960" cy="500" r="1.4"/><circle cx="1006" cy="500" r="1.4"/><circle cx="1052" cy="500" r="1.4"/><circle cx="1098" cy="500" r="1.4"/><circle cx="1144" cy="500" r="1.4"/><circle cx="1190" cy="500" r="1.4"/><circle cx="40" cy="546" r="1.4"/><circle cx="86" cy="546" r="1.4"/><circle cx="132" cy="546" r="1.4"/><circle cx="178" cy="546" r="1.4"/><circle cx="224" cy="546" r="1.4"/><circle cx="270" cy="546" r="1.4"/><circle cx="316" cy="546" r="1.4"/><circle cx="362" cy="546" r="1.4"/><circle cx="408" cy="546" r="1.4"/><circle cx="454" cy="546" r="1.4"/><circle cx="500" cy="546" r="1.4"/><circle cx="546" cy="546" r="1.4"/><circle cx="592" cy="546" r="1.4"/><circle cx="638" cy="546" r="1.4"/><circle cx="684" cy="546" r="1.4"/><circle cx="730" cy="546" r="1.4"/><circle cx="776" cy="546" r="1.4"/><circle cx="822" cy="546" r="1.4"/><circle cx="868" cy="546" r="1.4"/><circle cx="914" cy="546" r="1.4"/><circle cx="960" cy="546" r="1.4"/><circle cx="1006" cy="546" r="1.4"/><circle cx="1052" cy="546" r="1.4"/><circle cx="1098" cy="546" r="1.4"/><circle cx="1144" cy="546" r="1.4"/><circle cx="1190" cy="546" r="1.4"/><circle cx="40" cy="592" r="1.4"/><circle cx="86" cy="592" r="1.4"/><circle cx="132" cy="592" r="1.4"/><circle cx="178" cy="592" r="1.4"/><circle cx="224" cy="592" r="1.4"/><circle cx="270" cy="592" r="1.4"/><circle cx="316" cy="592" r="1.4"/><circle cx="362" cy="592" r="1.4"/><circle cx="408" cy="592" r="1.4"/><circle cx="454" cy="592" r="1.4"/><circle cx="500" cy="592" r="1.4"/><circle cx="546" cy="592" r="1.4"/><circle cx="592" cy="592" r="1.4"/><circle cx="638" cy="592" r="1.4"/><circle cx="684" cy="592" r="1.4"/><circle cx="730" cy="592" r="1.4"/><circle cx="776" cy="592" r="1.4"/><circle cx="822" cy="592" r="1.4"/><circle cx="868" cy="592" r="1.4"/><circle cx="914" cy="592" r="1.4"/><circle cx="960" cy="592" r="1.4"/><circle cx="1006" cy="592" r="1.4"/><circle cx="1052" cy="592" r="1.4"/><circle cx="1098" cy="592" r="1.4"/><circle cx="1144" cy="592" r="1.4"/><circle cx="1190" cy="592" r="1.4"/></g><g transform="translate(70.0,154.7) scale(1.0336)"><defs><radialGradient id="so_hub" cx="38%" cy="30%" r="78%"><stop offset="0" stop-color="#8FB0F5"/><stop offset="1" stop-color="#3E6FD4"/></radialGradient></defs><circle cx="120" cy="128" r="37" fill="#5B8DEF" opacity="0.13"/><g fill="none" stroke-width="7.5" stroke-linecap="round"><path d="M52 128 L95 128" stroke="#FFB13B"/><path d="M139 114 C170 84 190 70 200.5 64.5" stroke="#A56BFF"/><path d="M145 128 L216 128" stroke="#22D3EE"/><path d="M139 142 C170 172 190 186 200.5 191.5" stroke="#4ADE80"/></g><circle cx="40" cy="128" r="12" fill="#FFB13B"/><circle cx="212" cy="62" r="13" fill="#A56BFF"/><circle cx="228" cy="128" r="13" fill="#22D3EE"/><circle cx="212" cy="194" r="13" fill="#4ADE80"/><circle cx="120" cy="128" r="25" fill="url(#so_hub)"/><circle cx="120" cy="128" r="15" fill="none" stroke="rgba(255,255,255,0.55)" stroke-width="2.5"/><circle cx="120" cy="128" r="5" fill="#FFFFFF"/></g><text x="70" y="371" font-family="Geist" font-weight="700" font-size="86" letter-spacing="-2"><tspan fill="#ECEDF1">Launch</tspan><tspan fill="#5B8DEF">Kit</tspan></text><text x="70" y="429" font-family="Geist" font-weight="500" font-size="33" fill="#B4B7C2">Route any coding agent to any LLM.</text><text x="70" y="473" font-family="Geist Mono" font-weight="500" font-size="23" fill="#8A8D99" letter-spacing="0.5">CLI + GUI  ·  one proxy  ·  any provider</text><text x="1144" y="582" font-family="Geist Mono" font-weight="500" font-size="22" fill="#8A8D99" text-anchor="end">github.com/fmsouza/launchkit</text></svg>