<svg xmlns="http://www.w3.org/2000/svg" width="256" height="256" viewBox="0 0 256 256"><defs><linearGradient id="tile" x1="0" y1="0" x2="1" y2="1"><stop offset="0" stop-color="#1B1D24"/><stop offset="1" stop-color="#0C0D10"/></linearGradient><radialGradient id="sheen" cx="50%" cy="0%" r="85%"><stop offset="0" stop-color="#FFFFFF" stop-opacity="0.07"/><stop offset="1" stop-color="#FFFFFF" stop-opacity="0"/></radialGradient></defs><rect width="256" height="256" rx="60" fill="url(#tile)"/><rect width="256" height="256" rx="60" fill="url(#sheen)"/><rect x="1.5" y="1.5" width="253" height="253" rx="58.5" fill="none" stroke="#2A2C34" stroke-width="2"/><g transform="translate(128,128) scale(0.80) translate(-128,-128)"><defs><radialGradient id="ic_hub" cx="38%" cy="30%" r="78%"><stop offset="0" stop-color="#8FB0F5"/><stop offset="1" stop-color="#3E6FD4"/></radialGradient></defs><circle cx="120" cy="128" r="37" fill="#5B8DEF" opacity="0.13"/><g fill="none" stroke-width="7.5" stroke-linecap="round"><path d="M52 128 L95 128" stroke="#FFB13B"/><path d="M139 114 C170 84 190 70 200.5 64.5" stroke="#A56BFF"/><path d="M145 128 L216 128" stroke="#22D3EE"/><path d="M139 142 C170 172 190 186 200.5 191.5" stroke="#4ADE80"/></g><circle cx="40" cy="128" r="12" fill="#FFB13B"/><circle cx="212" cy="62" r="13" fill="#A56BFF"/><circle cx="228" cy="128" r="13" fill="#22D3EE"/><circle cx="212" cy="194" r="13" fill="#4ADE80"/><circle cx="120" cy="128" r="25" fill="url(#ic_hub)"/><circle cx="120" cy="128" r="15" fill="none" stroke="rgba(255,255,255,0.55)" stroke-width="2.5"/><circle cx="120" cy="128" r="5" fill="#FFFFFF"/></g></svg>