<svg xmlns="http://www.w3.org/2000/svg" width="610" height="176" viewBox="0 0 610 176"><g transform="translate(5.44,21.44) scale(0.5200)"><defs><radialGradient id="lk_hub" cx="38%" cy="30%" r="78%"><stop offset="0" stop-color="#8FB0F5"/><stop offset="1" stop-color="#3E6FD4"/></radialGradient></defs><circle cx="120" cy="128" r="37" fill="#5B8DEF" opacity="0.13"/><g fill="none" stroke-width="7.5" stroke-linecap="round"><path d="M52 128 L95 128" stroke="#FFB13B"/><path d="M139 114 C170 84 190 70 200.5 64.5" stroke="#A56BFF"/><path d="M145 128 L216 128" stroke="#22D3EE"/><path d="M139 142 C170 172 190 186 200.5 191.5" stroke="#4ADE80"/></g><circle cx="40" cy="128" r="12" fill="#FFB13B"/><circle cx="212" cy="62" r="13" fill="#A56BFF"/><circle cx="228" cy="128" r="13" fill="#22D3EE"/><circle cx="212" cy="194" r="13" fill="#4ADE80"/><circle cx="120" cy="128" r="25" fill="url(#lk_hub)"/><circle cx="120" cy="128" r="15" fill="none" stroke="rgba(255,255,255,0.55)" stroke-width="2.5"/><circle cx="120" cy="128" r="5" fill="#FFFFFF"/></g><g transform="translate(156.76,118.53)"><path d="M6.364 0.0V-61.059999999999995H19.436V-11.008H47.55799999999999V0.0Z M69.00399999999999 1.032Q61.779999999999994 1.032 57.30799999999999 -2.279Q52.836 -5.59 52.836 -11.524Q52.836 -17.63 56.663 -20.941Q60.489999999999995 -24.252 67.972 -25.799999999999997L82.85 -28.723999999999997Q82.85 -37.754 75.024 -37.754Q67.886 -37.754 66.596 -31.131999999999998L53.61 -31.733999999999998Q54.9 -39.302 60.447 -43.214999999999996Q65.994 -47.12799999999999 75.024 -47.12799999999999Q85.344 -47.12799999999999 90.547 -42.18299999999999Q95.75 -37.238 95.75 -27.863999999999997V-12.126Q95.75 -10.148 96.395 -9.503Q97.03999999999999 -8.857999999999999 98.32999999999998 -8.857999999999999H99.61999999999999V0.0Q99.018 0.172 97.685 0.344Q96.35199999999999 0.516 95.06199999999998 0.516Q91.536 0.516 88.741 -0.9889999999999999Q85.946 -2.4939999999999998 85.08599999999998 -6.622L84.91399999999999 -7.052Q83.19399999999999 -3.3539999999999996 79.06599999999999 -1.1609999999999998Q74.93799999999999 1.032 69.00399999999999 1.032ZM72.1 -7.826Q76.916 -7.826 79.883 -10.664Q82.85 -13.501999999999999 82.85 -18.404V-20.639999999999997L72.35799999999999 -18.404Q66.08 -17.2 66.08 -12.728Q66.08 -7.826 72.1 -7.826Z M120.55 1.032Q113.412 1.032 109.41300000000001 -3.569Q105.414 -8.17 105.414 -16.426V-46.096H118.314V-19.436Q118.314 -14.104 119.948 -11.652999999999999Q121.582 -9.202 125.108 -9.202Q129.064 -9.202 131.257 -11.911Q133.45 -14.62 133.45 -20.037999999999997V-46.096H146.35V0.0H134.56799999999998L134.396 -7.481999999999999Q130.87 1.032 120.55 1.032Z M156.61599999999999 0.0V-46.096H168.226L168.48399999999998 -38.442Q170.376 -43.172 173.988 -45.14999999999999Q177.6 -47.12799999999999 182.158 -47.12799999999999Q189.64 -47.12799999999999 193.725 -42.397999999999996Q197.81 -37.668 197.81 -29.669999999999998V0.0H184.91V-25.369999999999997Q184.91 -30.874 183.405 -33.884Q181.9 -36.894 177.858 -36.894Q173.816 -36.894 171.666 -33.884Q169.516 -30.874 169.516 -25.369999999999997V0.0Z M229.06 1.032Q222.00799999999998 1.032 216.719 -1.9779999999999998Q211.42999999999998 -4.9879999999999995 208.54899999999998 -10.363Q205.66799999999998 -15.738 205.66799999999998 -23.048Q205.66799999999998 -30.272 208.54899999999998 -35.69Q211.42999999999998 -41.108 216.719 -44.117999999999995Q222.00799999999998 -47.12799999999999 229.06 -47.12799999999999Q235.166 -47.12799999999999 240.02499999999998 -44.977999999999994Q244.884 -42.827999999999996 247.894 -38.786Q250.904 -34.744 251.59199999999998 -29.067999999999998L238.262 -28.465999999999998Q237.66 -32.766 235.209 -34.958999999999996Q232.75799999999998 -37.151999999999994 229.06 -37.151999999999994Q224.244 -37.151999999999994 221.57799999999997 -33.45399999999999Q218.91199999999998 -29.755999999999997 218.91199999999998 -23.048Q218.91199999999998 -16.34 221.57799999999997 -12.599Q224.244 -8.857999999999999 229.06 -8.857999999999999Q232.75799999999998 -8.857999999999999 235.25199999999998 -11.136999999999999Q237.74599999999998 -13.415999999999999 238.262 -18.06L251.59199999999998 -17.543999999999997Q250.98999999999998 -11.867999999999999 248.02299999999997 -7.696999999999999Q245.05599999999998 -3.526 240.197 -1.2469999999999999Q235.338 1.032 229.06 1.032Z M258.59 0.0V-61.059999999999995H271.49V-40.419999999999995Q273.382 -43.86 276.736 -45.494Q280.09 -47.12799999999999 284.21799999999996 -47.12799999999999Q291.95799999999997 -47.12799999999999 295.871 -42.226Q299.784 -37.324 299.784 -29.669999999999998V0.0H286.884V-26.573999999999998Q286.884 -31.733999999999998 285.25 -34.314Q283.616 -36.894 279.918 -36.894Q275.962 -36.894 273.726 -34.185Q271.49 -31.476 271.49 -26.229999999999997V0.0Z" fill="#15171C"/><path d="M310.82399999999996 0.0V-61.059999999999995H323.89599999999996V-34.4L346.08399999999995 -61.059999999999995H361.306L338.85999999999996 -34.141999999999996L362.68199999999996 0.0H347.804L330.26 -25.369999999999997L323.89599999999996 -17.974V0.0Z M368.39 0.0V-46.096H381.29V0.0ZM368.132 -51.772V-62.09199999999999H381.462V-51.772Z M410.64799999999997 0.0Q403.51 0.0 400.156 -3.311Q396.802 -6.622 396.802 -13.845999999999998V-36.464H389.406V-46.096H396.802V-56.931999999999995H409.702V-46.096H421.828V-36.464H409.702V-15.393999999999998Q409.702 -12.04 411.121 -10.835999999999999Q412.53999999999996 -9.632 415.378 -9.632H421.828V0.0Z" fill="#3E6FD4"/></g></svg>